<svg aria-hidden="true" style="position: absolute; width: 0; height: 0; overflow: hidden;" version="1.1" xmlns="http://www.w3.org/2000/svg" xmlns:xlink="http://www.w3.org/1999/xlink">
<defs>
<symbol id="icon-heart" viewBox="0 0 24 24">
<path d="M12 19.654l-0.035 0.043-7.965-10.197c-0.363-0.458-1-1.011-1-2.268 0-2.206 1.795-4 4-4 2.206 0 5 1.794 5 4v-3.313c-1.075-1.618-2.915-2.687-5-2.687-3.309 0-6 2.691-6 6 0 2.056 1 3 1.258 3.669l9.742 11.822v-3.069zM12 19.654l0.035 0.043 7.965-10.197c0.363-0.458 1-1.011 1-2.268 0-2.206-1.795-4-4-4s-5 1.794-5 4v-3.313c1.076-1.618 2.916-2.687 5-2.687 3.309 0 6 2.691 6 6 0 2.056-1 3-1.258 3.669l-9.742 11.822v-3.069z"></path>
</symbol>
<symbol id="icon-star" viewBox="0 0 24 24">
<path d="M18.364 23.523c-0.379 0.002-0.777-0.107-1.184-0.322l-3.876-2.037c-0.648-0.342-1.96-0.342-2.61 0l-3.874 2.037c-0.97 0.51-1.941 0.389-2.494-0.266-0.267-0.316-0.551-0.891-0.39-1.828l0.74-4.316c0.13-0.76-0.255-1.943-0.807-2.482l-3.137-3.056c-0.657-0.643-0.905-1.406-0.681-2.096 0.225-0.689 0.875-1.161 1.785-1.293l4.332-0.63c0.764-0.111 1.771-0.842 2.111-1.533l1.939-3.928c0.407-0.824 1.056-1.296 1.782-1.296s1.375 0.473 1.781 1.297l1.939 3.928c0.341 0.691 1.348 1.422 2.111 1.533l4.332 0.63c0.91 0.132 1.561 0.604 1.785 1.293s-0.024 1.453-0.683 2.096l-3.137 3.056c-0.552 0.539-0.937 1.723-0.807 2.482l0.74 4.316c0.161 0.938-0.123 1.512-0.39 1.826-0.317 0.38-0.783 0.589-1.307 0.589zM12 18.895c0.83 0 1.624 0.178 2.235 0.5l3.853 2.025-0.735-4.291c-0.243-1.418 0.351-3.246 1.381-4.252l3.118-3.037-4.307-0.627c-1.426-0.207-2.981-1.336-3.617-2.627l-1.928-3.903-1.928 3.903c-0.636 1.291-2.191 2.42-3.617 2.627l-4.307 0.627 3.118 3.037c1.030 1.006 1.624 2.834 1.381 4.252l-0.735 4.291 3.852-2.025c0.612-0.323 1.406-0.5 2.236-0.5z"></path>
</symbol>
<symbol id="icon-bag" viewBox="0 0 24 24">
<path d="M18 7v-3.004l-3-2.996h-6l-3 2.996v3.004h-3v17h18v-17h-3zM9 3h6l1 1h-8l1-1zM16 5v2h-1v-2h1zM14 5v2h-4v-2h4zM8 5h1v2h-1v-2zM19 22h-14v-13h14v13z"></path>
</symbol>
<symbol id="icon-mapmarker" viewBox="0 0 24 24">
<path d="M11.999 0c-5.027 0-9.103 4.076-9.103 9.104 0 5.029 7.15 14.896 9.104 14.896 1.445 0 9.105-9.867 9.105-14.896-0.001-5.028-4.077-9.104-9.106-9.104zM11.958 13.584c-2.555 0-4.625-2.070-4.625-4.625s2.070-4.625 4.625-4.625 4.625 2.070 4.625 4.625-2.070 4.625-4.625 4.625z"></path>
</symbol>
<symbol id="icon-pencil" viewBox="0 0 24 24">
<path d="M12.91 0.604l-8.799 15.705 0.045 0.023 0.445 7.064 6.447-3.202 0.041 0.023 8.799-15.704-6.978-3.909zM6.055 20.9l-0.061-3.539 3.199 1.793-3.138 1.746zM10.322 17.496l-3.488-1.955 5.377-9.597 3.49 1.954-5.379 9.598zM12.699 5.071l0.979-1.745 3.488 1.955-0.977 1.744-3.49-1.954z"></path>
</symbol>
<symbol id="icon-arrow-long-right" viewBox="0 0 20 20">
<path d="M14 15.5v-3.5h-13v-4h13v-3.5l5.25 5.5-5.25 5.5z"></path>
</symbol>
<symbol id="icon-battery" viewBox="0 0 20 20">
<path d="M15.408 10c0-2.766 1.277-4.32 2.277-4.32 0.363 0 1.315 0 1.315 0-0.668-1.059-1.221-1.68-3.658-1.68h-10.008c-3.734 0-5.334 3.441-5.334 6s1.6 6 5.334 6h10.008c2.438 0 2.99-0.621 3.658-1.68 0 0-0.315 0-1.315 0s-2.277-1.554-2.277-4.32zM12.688 11.795c-0.164 0.25-0.676 0.016-0.676 0.016l-2.957-1.338c0 0-0.264 0.67-0.467 1.141-0.205 0.471-0.361 1.004-1.209 0.408-0.849-0.598-3.581-3.25-3.581-3.25s-0.345-0.284-0.173-0.551c0.163-0.252 0.676-0.016 0.676-0.016l2.956 1.336c0 0 0.265-0.668 0.468-1.139 0.205-0.47 0.361-1.006 1.209-0.408 0.849 0.596 3.58 3.25 3.58 3.25s0.345 0.283 0.174 0.551zM18.874 7.928h-0.749c-0.559 0-1.105 0.754-1.105 1.979 0 1.227 0.547 1.98 1.105 1.98h0.749c0.56 0 1.126-0.754 1.126-1.98s-0.566-1.979-1.126-1.979z"></path>
</symbol>
</defs>
</svg>
